<svg width="22" height="21" viewBox="0 0 22 21" fill="none" xmlns="http://www.w3.org/2000/svg">
<path d="M16.7305 1.58914L5.70849 1.54974C5.35494 1.54869 5.01544 1.6881 4.76466 1.93731C4.51388 2.18652 4.37235 2.52513 4.37118 2.87868L4.32767 17.1785C4.32719 17.3537 4.36123 17.5272 4.42784 17.6892C4.49446 17.8512 4.59235 17.9985 4.71592 18.1227C4.83949 18.2469 4.98631 18.3455 5.148 18.4129C5.30969 18.4803 5.48308 18.5152 5.65825 18.5155L16.6803 18.5549C16.8555 18.5555 17.0292 18.5215 17.1913 18.455C17.3534 18.3884 17.5008 18.2905 17.6251 18.1669C17.7493 18.0433 17.848 17.8964 17.9154 17.7347C17.9829 17.5729 18.0178 17.3994 18.0181 17.2242L18.0616 2.92437C18.0621 2.57081 17.9222 2.23152 17.6726 1.98112C17.4229 1.73072 17.0841 1.58973 16.7305 1.58914ZM16.6832 17.2216L5.66031 17.1823L5.70382 2.88252L16.7258 2.92192L16.6832 17.2216ZM7.03064 4.88745C7.03142 4.71071 7.10235 4.54151 7.22784 4.41705C7.35333 4.29259 7.5231 4.22306 7.69984 4.22373L14.7234 4.24831C14.8903 4.24868 15.0509 4.31162 15.1737 4.42471C15.2964 4.5378 15.3722 4.69281 15.3862 4.85911C15.4002 5.02541 15.3513 5.1909 15.2492 5.3229C15.1471 5.4549 14.9992 5.54379 14.8347 5.57203C14.7962 5.57864 14.7571 5.58199 14.718 5.58205L7.69435 5.55666C7.51761 5.55588 7.34842 5.48494 7.22396 5.35946C7.0995 5.23397 7.02996 5.06419 7.03064 4.88745ZM7.02323 7.55437C7.02351 7.4668 7.04104 7.38014 7.07482 7.29935C7.10859 7.21855 7.15796 7.14521 7.22009 7.08349C7.28222 7.02178 7.3559 6.97292 7.43693 6.93969C7.51795 6.90646 7.60472 6.88952 7.69229 6.88983L14.716 6.91523C14.8838 6.91431 15.0458 6.97672 15.1696 7.09002C15.2935 7.20331 15.37 7.35914 15.384 7.5264C15.398 7.69365 15.3483 7.86002 15.245 7.99229C15.1417 8.12455 14.9923 8.21298 14.8266 8.23991C14.7878 8.2467 14.7484 8.24983 14.709 8.24926L7.68545 8.22468C7.50878 8.2235 7.3398 8.15225 7.21563 8.02656C7.09146 7.90088 7.02226 7.73104 7.02323 7.55437ZM7.01486 10.2206C7.01629 10.0442 7.08757 9.8756 7.21308 9.75165C7.33859 9.62771 7.5081 9.55857 7.68449 9.55936L11.1941 9.56905C11.3609 9.56942 11.5215 9.63232 11.6443 9.74532C11.767 9.85832 11.8429 10.0132 11.8569 10.1794C11.871 10.3457 11.8223 10.5111 11.7203 10.6431C11.6184 10.7752 11.4706 10.8642 11.3063 10.8926C11.2677 10.8993 11.2287 10.9026 11.1896 10.9027L7.67776 10.89C7.50114 10.889 7.33213 10.8179 7.20784 10.6924C7.08356 10.5669 7.01415 10.3972 7.01486 10.2206Z" fill="#537FE7"/>
</svg>
