<svg width="23" height="21" viewBox="0 0 23 21" fill="none" xmlns="http://www.w3.org/2000/svg">
<path d="M16.9537 1.58523L5.93163 1.54584C5.57808 1.54478 5.23859 1.68419 4.98781 1.9334C4.73703 2.18261 4.59549 2.52122 4.59433 2.87477L4.55082 17.1746C4.55033 17.3498 4.58437 17.5233 4.65099 17.6853C4.7176 17.8473 4.81549 17.9946 4.93906 18.1188C5.06263 18.243 5.20945 18.3416 5.37114 18.409C5.53283 18.4764 5.70622 18.5112 5.8814 18.5116L16.9034 18.551C17.0787 18.5516 17.2523 18.5176 17.4144 18.4511C17.5766 18.3845 17.724 18.2866 17.8482 18.163C17.9725 18.0394 18.0711 17.8925 18.1386 17.7308C18.206 17.569 18.2409 17.3955 18.2413 17.2203L18.2848 2.92047C18.2853 2.5669 18.1453 2.22761 17.8957 1.97721C17.6461 1.72682 17.3072 1.58582 16.9537 1.58523ZM16.9063 17.2177L5.88346 17.1784L5.92696 2.87862L16.949 2.91801L16.9063 17.2177ZM7.25378 4.88354C7.25456 4.7068 7.32549 4.53761 7.45098 4.41315C7.57647 4.28869 7.74625 4.21915 7.92299 4.21983L14.9465 4.2444C15.1134 4.24477 15.2741 4.30772 15.3968 4.42081C15.5195 4.5339 15.5954 4.6889 15.6094 4.8552C15.6234 5.0215 15.5745 5.187 15.4723 5.31899C15.3702 5.45099 15.2223 5.53989 15.0578 5.56812C15.0193 5.57473 14.9803 5.57808 14.9412 5.57815L7.9175 5.55275C7.74076 5.55197 7.57156 5.48104 7.4471 5.35555C7.32264 5.23006 7.25311 5.06029 7.25378 4.88354ZM7.24638 7.55046C7.24665 7.46289 7.26418 7.37624 7.29796 7.29544C7.33174 7.21465 7.3811 7.1413 7.44324 7.07959C7.50537 7.01787 7.57905 6.96901 7.66007 6.93578C7.74109 6.90255 7.82787 6.88561 7.91544 6.88593L14.9391 6.91132C15.107 6.9104 15.269 6.97282 15.3928 7.08611C15.5166 7.1994 15.5932 7.35524 15.6071 7.52249C15.6211 7.68974 15.5715 7.85612 15.4682 7.98838C15.3648 8.12065 15.2154 8.20907 15.0498 8.23601C15.0109 8.2428 14.9715 8.24593 14.9321 8.24535L7.90859 8.22077C7.73192 8.2196 7.56294 8.14834 7.43877 8.02266C7.31461 7.89697 7.24541 7.72714 7.24638 7.55046ZM7.23801 10.2167C7.23944 10.0403 7.31071 9.87169 7.43622 9.74775C7.56173 9.62381 7.73125 9.55466 7.90764 9.55545L11.4173 9.56515C11.5841 9.56552 11.7447 9.62841 11.8674 9.74141C11.9901 9.85441 12.066 10.0093 12.0801 10.1755C12.0942 10.3417 12.0454 10.5072 11.9435 10.6392C11.8415 10.7713 11.6938 10.8603 11.5294 10.8887C11.4909 10.8954 11.4518 10.8987 11.4127 10.8987L7.9009 10.8861C7.72428 10.8851 7.55527 10.814 7.43099 10.6885C7.3067 10.563 7.23729 10.3933 7.23801 10.2167Z" fill="#6E6E9B"/>
</svg>
