<svg width="14" height="14" viewBox="0 0 14 14" fill="none" xmlns="http://www.w3.org/2000/svg">
<g id="icon/outline/delete" clip-path="url(#clip0_402_7)">
<path id="Vector" d="M8.90121 5.67296L8.71305 10.565M6.11022 10.565L5.92207 5.67296M11.3403 3.92843C11.5262 3.9565 11.7115 3.98653 11.896 4.01851M11.3403 3.92843L10.7599 11.4742C10.7109 12.1114 10.1795 12.6034 9.54046 12.6034H5.28281C4.64374 12.6034 4.11241 12.1114 4.0634 11.4742L3.48296 3.92843M11.3403 3.92843C10.7172 3.83432 10.0868 3.76225 9.45 3.71304M2.92725 4.01851C3.11183 3.98653 3.29707 3.9565 3.48296 3.92843M3.48296 3.92843C4.10611 3.83432 4.73649 3.76225 5.37328 3.71304M9.45 3.71304V3.21507C9.45 2.57401 8.955 2.03882 8.31427 2.01832C8.01457 2.00874 7.71367 2.00391 7.41164 2.00391C7.10961 2.00391 6.80871 2.00874 6.50901 2.01832C5.86828 2.03882 5.37328 2.57401 5.37328 3.21507V3.71304M9.45 3.71304C8.77737 3.66107 8.0976 3.63459 7.41164 3.63459C6.72568 3.63459 6.04591 3.66107 5.37328 3.71304" stroke="#040F0F" stroke-width="0.978413" stroke-linecap="round" stroke-linejoin="round"/>
</g>
<defs>
<clipPath id="clip0_402_7">
<rect width="13.0455" height="13.0455" fill="white" transform="translate(0.88916 0.78125)"/>
</clipPath>
</defs>
</svg>
