<svg width="14" height="14" viewBox="0 0 14 14" fill="none" xmlns="http://www.w3.org/2000/svg">
<g id="icon/outline/edit">
<path id="Vector" d="M9.57278 3.21968L10.49 2.30242C10.8881 1.9044 11.5334 1.9044 11.9314 2.30242C12.3294 2.70043 12.3294 3.34574 11.9314 3.74376L6.15948 9.51566C5.87211 9.80302 5.51767 10.0143 5.12818 10.1303L3.66877 10.565L4.1035 9.10562C4.21953 8.71613 4.43077 8.36169 4.71813 8.07432L9.57278 3.21968ZM9.57278 3.21968L11.0069 4.65377M10.1915 8.39077V10.9727C10.1915 11.6481 9.64397 12.1957 8.96851 12.1957H3.2611C2.58565 12.1957 2.03809 11.6481 2.03809 10.9727V5.26528C2.03809 4.58983 2.58565 4.04226 3.2611 4.04226H5.84303" stroke="#040F0F" stroke-width="0.978413" stroke-linecap="round" stroke-linejoin="round"/>
</g>
</svg>
