<svg width="88" height="61" viewBox="0 0 88 61" fill="none" xmlns="http://www.w3.org/2000/svg">
<g clip-path="url(#clip0_122_1163)">
<path d="M38.6846 29.3901C38.7684 29.5365 38.8354 29.691 38.8773 29.8536C39.0448 30.5446 38.8103 31.0975 38.6595 31.7561C38.492 32.5285 38.3161 33.309 38.1486 34.0814C37.7884 35.6994 37.4283 37.3254 37.0765 38.9434C36.8336 40.041 36.6242 41.1549 36.3478 42.2444C36.2138 42.7728 36.1468 43.3745 36.1468 44.0331C36.1468 44.4884 36.2306 44.8949 36.3897 45.2689C36.5572 45.6429 36.8922 45.8299 37.4115 45.8299C38.0648 45.8299 38.7265 45.4478 39.4049 44.6754C40.075 43.903 40.7115 42.846 41.3146 41.4882H42.8306C42.1773 43.1631 41.5156 44.4802 40.8623 45.4478C40.209 46.4153 39.5724 47.1552 38.9526 47.6592C38.3412 48.1633 37.7466 48.4886 37.1854 48.6349C36.6242 48.7812 36.1217 48.8544 35.6861 48.8544C34.7816 48.8544 34.0362 48.5455 33.4499 47.9357C32.8636 47.3259 32.5118 46.3259 32.4029 44.9518C31.7747 46.0413 30.9037 46.96 29.7981 47.7162C28.6925 48.4723 27.478 48.8544 26.1714 48.8544C25.5181 48.8544 24.8732 48.7406 24.245 48.5129C23.6169 48.2853 23.0557 47.9194 22.5615 47.3991C22.0674 46.8787 21.6737 46.2202 21.3722 45.4071C21.0707 44.5941 20.9199 43.6103 20.9199 42.4395C20.9199 41.537 21.0204 40.5695 21.2298 39.5288C21.4308 38.4962 21.7324 37.4555 22.1093 36.423C22.4945 35.3904 22.9803 34.3904 23.5834 33.4391C24.1864 32.4797 24.8648 31.6423 25.6354 30.9105C26.3976 30.1788 27.2686 29.5934 28.2402 29.1625C29.2118 28.7234 30.2671 28.5039 31.423 28.5039C32.0763 28.5039 32.7463 28.6503 33.4331 28.9429C33.7765 29.0893 34.0697 29.3251 34.2874 29.6259C34.4884 29.8942 34.5806 30.3495 34.8151 30.5528C34.8821 30.3007 35.0077 29.9593 35.2422 29.6015C35.3763 29.3901 35.4935 29.2113 35.7113 29.0324C36.0966 28.7234 36.5237 28.6665 36.7331 28.634C36.9592 28.6015 37.5288 28.5689 38.09 28.8698C38.2491 28.9511 38.5087 29.0893 38.693 29.382L38.6846 29.3901ZM27.8884 45.838C28.324 45.838 28.7763 45.7242 29.2453 45.4965C29.706 45.2689 30.1582 44.9681 30.577 44.5778C31.0042 44.1957 31.3811 43.7322 31.7077 43.2038C32.0344 42.6753 32.2689 42.1061 32.4029 41.4882L34.3712 32.4472C34.2874 32 34.0864 31.5935 33.7598 31.2357C33.4331 30.878 32.9557 30.6991 32.3275 30.6991C31.2052 30.6991 30.2085 31.0975 29.329 31.8943C28.4496 32.6911 27.7126 33.6586 27.1179 34.805C26.5148 35.9433 26.0626 37.171 25.761 38.4718C25.4595 39.7727 25.3087 40.911 25.3087 41.8948C25.3087 43.407 25.5433 44.4396 26.0039 45.0006C26.4646 45.5616 27.1011 45.838 27.8884 45.838Z" fill="#005BC5"/>
<path d="M47.9732 27.4953C48.1658 27.7149 48.1909 27.975 48.2077 28.219C48.2328 28.4954 48.1993 28.7149 48.082 29.2434C48.015 29.528 47.9313 29.8938 47.814 30.3085C48.4422 29.78 49.1457 29.3491 49.9247 29.0157C50.7036 28.6824 51.5412 28.5198 52.4457 28.5198C53.1577 28.5198 53.811 28.6417 54.414 28.8775C55.0171 29.1133 55.5363 29.5036 55.9719 30.032C56.4074 30.5605 56.7508 31.2435 56.9937 32.0809C57.2366 32.9184 57.3622 33.9428 57.3622 35.1705C57.3622 36.0242 57.2952 36.9511 57.1528 37.9592C57.0188 38.9674 56.8011 39.9837 56.4995 41.0082C56.198 42.0326 55.796 43.0164 55.2935 43.9514C54.7909 44.8945 54.1627 45.7319 53.4257 46.4637C52.6886 47.1954 51.8259 47.7808 50.8376 48.2117C49.8493 48.6508 48.7353 48.8703 47.4706 48.8703C46.7336 48.8703 46.097 48.6914 45.561 48.3337C45.0249 47.976 44.5726 47.5044 44.1874 46.919C43.7267 49.2606 43.2912 51.1793 42.9394 52.6022C42.5457 54.2039 42.6044 53.8136 42.2526 55.2852C42.2191 55.4072 41.9176 56.6755 41.415 58.261C41.08 59.3098 40.8957 59.7488 40.4267 60.0822C40.3178 60.1554 39.7064 60.5782 38.9526 60.4074C38.3496 60.2692 38.0145 59.8383 37.914 59.7001C37.8303 59.5781 37.5371 59.1309 37.646 57.952C37.7298 56.9682 38.0145 56.2528 38.0229 56.2365C38.4417 54.3014 38.8688 52.3664 39.2876 50.4395C40.3848 45.4311 41.482 40.4146 42.5709 35.4063C42.8556 34.1217 43.132 32.8371 43.4168 31.5524C43.5508 30.9589 43.6262 30.3166 43.8523 29.7556C44.0785 29.2109 44.6145 27.788 45.7704 27.2514C45.9295 27.1783 46.4153 26.9506 46.9681 27.04C47.2277 27.0807 47.4455 27.1783 47.479 27.1945C47.6298 27.2677 47.814 27.349 47.9564 27.5116L47.9732 27.4953ZM50.4858 31.1053C49.8577 31.1053 49.2797 31.276 48.7437 31.6256C48.2077 31.9671 47.7135 32.4468 47.2445 33.0566L44.6229 44.9189C44.9244 45.423 45.2846 45.7807 45.7117 45.9921C46.1389 46.2035 46.5158 46.3092 46.8424 46.3092C48.0737 46.3092 49.0955 45.9027 49.9163 45.0978C50.7371 44.2847 51.3988 43.3091 51.9097 42.1545C52.4122 41 52.7808 39.7886 52.9985 38.5284C53.2163 37.2681 53.3252 36.1705 53.3252 35.2437C53.3252 34.4469 53.2414 33.7802 53.0823 33.2517C52.9148 32.7232 52.697 32.2923 52.429 31.9752C52.1526 31.6581 51.8511 31.4305 51.5244 31.3004C51.1978 31.1703 50.8544 31.1053 50.5026 31.1053H50.4858Z" fill="#005BC5"/>
<path d="M73.0498 32.6173C73.0498 34.8775 72.1453 36.6988 70.3361 38.0891C68.527 39.4794 66.0227 40.3412 62.84 40.6583C62.8148 40.8697 62.7981 41.0729 62.7981 41.2762V41.8941C62.7981 43.2519 63.0661 44.2438 63.6021 44.878C64.1382 45.5122 65.0595 45.8374 66.3745 45.8374C67.6894 45.8374 68.9877 45.504 70.2691 44.8455C71.5506 44.1788 72.7316 43.0649 73.7953 41.5039H75.1103C74.5658 42.4876 73.9042 43.4226 73.142 44.3089C72.3798 45.1951 71.5255 45.9837 70.5958 46.6586C69.6661 47.3334 68.6778 47.87 67.6224 48.2684C66.5671 48.6668 65.495 48.8619 64.4062 48.8619C63.6105 48.8619 62.8483 48.74 62.1197 48.5042C61.391 48.2684 60.7377 47.8944 60.1765 47.3903C59.607 46.8862 59.1547 46.2277 58.8113 45.4227C58.4679 44.6097 58.292 43.634 58.292 42.4958C58.292 41.7559 58.3757 40.8859 58.5349 39.9103C58.7024 38.9265 58.9537 37.9183 59.2971 36.8858C59.6405 35.8532 60.0928 34.8288 60.6539 33.8206C61.2151 32.8124 61.8768 31.9181 62.6473 31.1294C63.4095 30.3489 64.2973 29.7147 65.294 29.235C66.2907 28.7553 67.4214 28.5195 68.6778 28.5195C69.2557 28.5195 69.8001 28.5764 70.3194 28.6984C70.8387 28.8204 71.3077 29.0317 71.7181 29.3326C72.1285 29.6415 72.4552 30.0562 72.7064 30.5847C72.9493 31.1131 73.075 31.7961 73.075 32.6173H73.0498ZM69.0379 30.4708C68.2757 30.4708 67.5722 30.731 66.9189 31.2514C66.2656 31.7717 65.6877 32.4384 65.1851 33.2596C64.6826 34.0808 64.2471 35.0076 63.8785 36.0239C63.51 37.0484 63.2336 38.0728 63.041 39.1135C65.3275 38.772 67.145 37.9834 68.5103 36.7638C69.8671 35.5442 70.5539 34.032 70.5539 32.227C70.5539 31.7798 70.4618 31.3733 70.2859 31.0156C70.11 30.6578 69.6912 30.479 69.0379 30.479V30.4708Z" fill="#005BC5"/>
<path d="M77.8572 27.8584C78.2258 27.7364 78.5608 27.7527 78.7115 27.769C78.7618 27.769 78.9963 27.7934 79.2978 27.8909C79.5072 27.956 79.7836 28.0535 80.06 28.2974C80.1605 28.3869 80.328 28.5332 80.4285 28.7771C80.4956 28.9316 80.5458 29.1511 80.4453 29.7203C80.3699 30.1349 80.261 30.387 80.194 30.6715C80.0935 31.1106 79.993 31.5496 79.9009 31.9887C80.2862 31.5659 80.6798 31.1431 81.0902 30.7366C81.5006 30.3219 81.9278 29.9561 82.3801 29.6227C82.8324 29.2894 83.3014 29.0292 83.7956 28.8259C84.2897 28.6308 84.8174 28.5251 85.3953 28.5251C86.2161 28.5251 86.8024 28.704 87.1625 29.0617C87.5143 29.4194 87.6986 29.8666 87.6986 30.3951C87.6986 30.9236 87.6065 31.322 87.4306 31.6472C87.2547 31.9805 87.0369 32.2407 86.794 32.444C86.5511 32.6391 86.2915 32.7855 86.0151 32.8586C85.7387 32.9399 85.5126 32.9806 85.3199 32.9806C85.077 32.9806 84.8928 32.9318 84.7671 32.818C84.6415 32.7123 84.5242 32.5985 84.3986 32.4765C84.273 32.3545 84.1306 32.2407 83.9714 32.135C83.8039 32.0293 83.5778 31.9724 83.2763 31.9724C82.6732 31.9724 82.0367 32.1757 81.3666 32.5903C80.6966 33.005 80.0768 33.444 79.4989 33.9237C79.4821 34.005 79.4654 34.0782 79.4486 34.1595L78.8874 36.6962C78.5859 38.0784 78.276 39.4606 77.9745 40.8509C77.6562 42.2818 77.3463 43.7128 77.028 45.1437C76.9024 45.721 76.7768 46.2983 76.6428 46.8837C76.6009 47.0625 76.5841 47.2658 76.5171 47.4447C76.4585 47.5991 76.3329 47.7048 76.2156 47.8349C76.0313 48.0382 75.8303 48.1764 75.5791 48.2984C75.2189 48.4772 74.8001 48.4935 74.4065 48.4041C74.0128 48.3146 73.6527 48.1357 73.3176 47.9244C73.2423 47.8756 73.1585 47.8268 73.0999 47.7617C73.0077 47.6642 72.9407 47.5422 72.8821 47.4284C72.79 47.2414 72.589 46.9894 72.5638 46.778C72.5387 46.5341 72.6895 46.1763 72.7481 45.9324C72.8737 45.3551 72.9994 44.7779 73.125 44.2006C73.4349 42.7778 73.7448 41.355 74.0547 39.9403C74.3813 38.4443 74.708 36.9401 75.0346 35.4441C75.3194 34.1514 75.6042 32.8505 75.8806 31.5578C75.8806 31.5578 75.9476 31.135 76.09 30.5821C76.492 29.0129 76.9192 28.5414 77.0951 28.3706C77.4552 28.0129 77.7735 27.8991 77.8656 27.8665L77.8572 27.8584Z" fill="#005BC5"/>
<path d="M8.74165 6.01562C8.90079 6.01562 9.61271 6.04815 10.5089 6.28393C11.0533 6.43028 12.0081 6.69045 13.0132 7.41406C13.3147 7.63358 14.2612 8.34906 14.9731 9.62555C15.1825 10.0077 15.6013 10.7475 15.8023 12.2029C16.0787 14.2436 15.8944 16.1868 15.7018 17.4633L14.1439 26.0247L12.8373 33.2039C12.7033 33.9356 12.5693 34.6673 12.4353 35.3991C11.8574 38.5537 11.4386 41.7815 10.8607 44.9686C10.7099 45.7817 10.5675 46.5947 10.2995 47.3752C10.1739 47.7492 10.0147 48.1151 9.7551 48.4078C9.15205 49.0908 7.71145 48.92 7.10003 48.2696C6.63099 47.7655 6.698 47.0256 6.7315 46.7085C7.09165 43.3425 7.26754 41.6595 7.87896 38.7407C8.19723 37.1959 8.0381 37.6593 9.11855 31.5696C9.25256 30.8054 9.35307 30.2606 9.46195 29.6752C9.70484 28.35 9.98962 26.854 10.3581 24.9514C10.668 23.366 10.9779 21.7887 11.2878 20.2033C11.4051 19.5853 11.4889 19.0487 11.6564 18.1707C11.9998 16.4145 12.0668 16.447 12.1757 15.6827C12.3432 14.4469 12.4688 13.455 12.0333 12.3411C11.8741 11.9346 11.6145 11.3004 10.9444 10.7801C10.7518 10.6337 10.0817 10.1052 9.0683 10.089C8.31449 10.0727 7.77845 10.2597 7.4853 10.3898C7.0414 10.5849 6.73987 10.837 6.42998 11.089C6.20383 11.276 5.83531 11.6012 5.49191 12.0484C4.7046 13.0485 4.49521 14.0892 4.28582 14.7477C4.00942 15.6014 4.05967 16.2844 4.0513 16.9511C4.03455 17.7723 4.02617 18.3333 4.21881 19.0487C4.31094 19.3983 4.50358 19.7967 4.88048 20.6017C5.19038 21.2602 5.37465 21.683 5.71805 22.2359C5.99444 22.6749 6.30434 23.1384 6.67287 23.6181C7.01627 24.0734 7.35967 24.4799 7.68632 24.8376C8.00459 25.1547 8.33124 25.4637 8.64952 25.7808L8.12185 29.7484C7.83708 29.6752 7.51881 29.5777 7.17541 29.4151C6.3881 29.0492 5.59241 28.3012 5.59241 28.3012C4.55384 27.3174 3.83353 26.3255 3.7749 26.2523C3.04622 25.2441 2.63582 24.4148 2.15003 23.4473C1.66424 22.4798 1.37947 21.8944 1.08633 21.0163C0.625666 19.626 0.500032 18.504 0.433027 17.9105C0.33252 17.1137 0.33252 16.5039 0.33252 16.3088C0.33252 15.3331 0.424651 14.5363 0.500032 14.0485C0.608915 13.3493 0.73455 12.5281 1.1282 11.5118C1.31247 11.0402 1.64749 10.1865 2.3678 9.22715C2.66094 8.83689 3.22211 8.09702 4.21043 7.40593C5.07312 6.79615 5.85206 6.51158 6.08657 6.43028C6.47185 6.29206 7.46018 5.99123 8.75002 6.02376L8.74165 6.01562Z" fill="#005BC5"/>
<path d="M17.6784 1.04991C18.7422 0.586472 19.8812 1.10682 21.9751 2.10687C23.1729 2.676 24.3454 3.20448 25.6688 4.31835C27.0759 5.50539 27.8716 6.66805 28.349 7.38353C28.7091 7.92014 29.53 9.22101 30.1665 11.0585C30.5937 12.2862 31.4815 14.9448 30.9789 18.3434C30.6104 20.8232 29.6723 22.5712 29.019 23.7745C28.1145 25.4575 27.3607 26.2218 27.1764 26.4088C26.5064 27.0755 25.5432 27.8072 24.9317 28.2137C24.8982 28.23 24.8731 28.2544 24.8396 28.2788C24.1696 28.7097 23.5414 28.9861 22.9216 29.2626C22.7876 29.3195 22.7038 29.3601 22.5866 29.4089C21.7658 29.7504 21.0706 29.9618 20.7439 30.0594C19.496 30.409 18.2564 30.474 17.8543 30.4984C16.129 30.5878 14.5543 30.3764 14.546 30.4496C14.546 30.474 14.5543 30.4496 14.546 30.4496C14.4203 30.3846 14.4538 29.6691 14.9982 27.2869C15.5092 27.3194 16.2043 27.3357 17.0252 27.2869C17.7455 27.2381 18.8092 27.1649 20.0152 26.8072C21.6652 26.3193 22.8378 25.5226 23.4241 25.0754C25.6688 23.368 26.5482 21.2297 26.8498 20.4573C27.813 18.0019 27.6287 15.888 27.5198 14.8961C27.3774 13.5301 27.0424 12.4163 26.7493 11.6358C26.5482 11.0097 26.1797 10.1154 25.5097 9.18036C24.8647 8.29414 24.1696 7.67623 23.6419 7.28596C23.1059 6.83066 22.3018 6.2534 21.213 5.79809C20.4089 5.45661 19.6718 5.27774 19.0856 5.18018C18.5663 5.06635 18.0386 4.96065 17.5193 4.84683C17.4188 4.83057 16.7404 4.68422 16.3635 4.05004C16.0452 3.5053 16.1625 2.97682 16.1876 2.85487C16.397 2.29387 16.8325 1.45643 17.6784 1.09056V1.04991Z" fill="#005BC5"/>
<path d="M17.2681 5.80469C17.5863 5.85347 18.0386 5.93477 18.5579 6.10551C19.0772 6.27625 19.429 6.44699 20.0153 6.73969C20.4508 6.95921 21.0455 7.25191 21.7825 7.73974C22.2934 8.07308 22.6955 8.33326 23.1729 8.76417C23.5833 9.13817 23.8346 9.44713 24.2952 9.99187C24.7224 10.5041 25.0574 10.9513 25.3087 11.309L25.7023 11.9594C25.7191 12.0895 25.6437 12.2196 25.5348 12.2684C25.4008 12.3334 25.2165 12.2684 25.1328 12.1302C24.781 11.6261 24.4209 11.1301 24.0691 10.626C23.6838 10.2358 23.2985 9.83739 22.9132 9.44713C22.5698 9.13004 22.1427 8.7723 21.5983 8.42269C21.0874 8.09748 18.9097 6.95921 18.9097 6.95921L17.444 6.39008C17.3937 6.39821 17.3099 6.40634 17.2178 6.37382C17.0671 6.30878 16.9498 6.13804 16.9833 5.98356C17 5.91038 17.0419 5.8616 17.0754 5.83721" fill="#005BC5"/>
<path d="M25.5859 13.1595C25.6027 12.9888 25.7367 12.8505 25.9042 12.8343C26.0466 12.818 26.1806 12.8912 26.256 13.0132C26.3397 14.2327 26.4151 15.4604 26.4989 16.68C26.4654 16.8589 26.323 16.9889 26.1722 16.9971C25.9796 17.0133 25.7786 16.8263 25.787 16.5824" fill="#005BC5"/>
</g>
<defs>
<clipPath id="clip0_122_1163">
<rect width="87.3578" height="59.5556" fill="white" transform="translate(0.333008 0.886719)"/>
</clipPath>
</defs>
</svg>
