<svg width="24" height="23" viewBox="0 0 24 23" fill="none" xmlns="http://www.w3.org/2000/svg">
<path d="M16.9136 3.49605L18.7968 1.61286C19.614 0.795713 20.9389 0.795713 21.756 1.61286C22.5731 2.43001 22.5731 3.75487 21.756 4.57202L9.90593 16.4221C9.31595 17.0121 8.58826 17.4458 7.78861 17.684L4.79236 18.5765L5.68489 15.5803C5.92309 14.7806 6.35678 14.0529 6.94676 13.4629L16.9136 3.49605ZM16.9136 3.49605L19.8579 6.44034M18.184 14.1126V19.4135C18.184 20.8002 17.0598 21.9244 15.673 21.9244H3.95539C2.56864 21.9244 1.44446 20.8002 1.44446 19.4135V7.6958C1.44446 6.30905 2.56864 5.18487 3.95539 5.18487H9.25623" stroke="#5A5A5A" stroke-width="2.00874" stroke-linecap="round" stroke-linejoin="round"/>
</svg>
