<svg width="61" height="69" viewBox="0 0 61 69" fill="none" xmlns="http://www.w3.org/2000/svg">
<g id="&#240;&#159;&#166;&#134; icon &#34;User&#34;">
<path id="Vector" d="M42.2625 40.9688C38.3947 40.9688 36.535 43.125 30.1875 43.125C23.84 43.125 21.9937 40.9688 18.1125 40.9688C8.11289 40.9688 0 49.0816 0 59.0812V62.5312C0 66.1025 2.89746 69 6.46875 69H53.9062C57.4775 69 60.375 66.1025 60.375 62.5312V59.0812C60.375 49.0816 52.2621 40.9688 42.2625 40.9688ZM53.9062 62.5312H6.46875V59.0812C6.46875 52.6664 11.6977 47.4375 18.1125 47.4375C20.0801 47.4375 23.274 49.5938 30.1875 49.5938C37.1549 49.5938 40.2814 47.4375 42.2625 47.4375C48.6773 47.4375 53.9062 52.6664 53.9062 59.0812V62.5312ZM30.1875 38.8125C40.9014 38.8125 49.5938 30.1201 49.5938 19.4062C49.5938 8.69238 40.9014 0 30.1875 0C19.4736 0 10.7812 8.69238 10.7812 19.4062C10.7812 30.1201 19.4736 38.8125 30.1875 38.8125ZM30.1875 6.46875C37.3166 6.46875 43.125 12.2771 43.125 19.4062C43.125 26.5354 37.3166 32.3438 30.1875 32.3438C23.0584 32.3438 17.25 26.5354 17.25 19.4062C17.25 12.2771 23.0584 6.46875 30.1875 6.46875Z" fill="#D4E6FF"/>
</g>
</svg>
