<svg width="31" height="32" viewBox="0 0 31 32" fill="none" xmlns="http://www.w3.org/2000/svg">
<path fill-rule="evenodd" clip-rule="evenodd" d="M1.30082 0.712487C1.5013 0.501497 1.73947 0.334099 2.00167 0.219882C2.26388 0.105665 2.54498 0.046875 2.82887 0.046875C3.11275 0.046875 3.39385 0.105665 3.65606 0.219882C3.91826 0.334099 4.15643 0.501497 4.35691 0.712487L15.7784 12.7067L27.1999 0.712487C27.4006 0.501838 27.6388 0.334742 27.901 0.22074C28.1632 0.106738 28.4442 0.0480612 28.728 0.0480612C29.0118 0.0480612 29.2928 0.106738 29.555 0.22074C29.8171 0.334742 30.0554 0.501838 30.256 0.712487C30.4567 0.923136 30.6159 1.17321 30.7245 1.44844C30.8331 1.72366 30.889 2.01865 30.889 2.31655C30.889 2.61445 30.8331 2.90944 30.7245 3.18467C30.6159 3.45989 30.4567 3.70997 30.256 3.92062L18.8302 15.9103L30.256 27.9C30.4567 28.1107 30.6159 28.3607 30.7245 28.636C30.8331 28.9112 30.889 29.2062 30.889 29.5041C30.889 29.802 30.8331 30.097 30.7245 30.3722C30.6159 30.6474 30.4567 30.8975 30.256 31.1081C30.0554 31.3188 29.8171 31.4859 29.555 31.5999C29.2928 31.7139 29.0118 31.7726 28.728 31.7726C28.4442 31.7726 28.1632 31.7139 27.901 31.5999C27.6388 31.4859 27.4006 31.3188 27.1999 31.1081L15.7784 19.1139L4.35691 31.1081C4.15625 31.3188 3.91802 31.4859 3.65584 31.5999C3.39366 31.7139 3.11265 31.7726 2.82887 31.7726C2.54508 31.7726 2.26407 31.7139 2.00189 31.5999C1.73971 31.4859 1.50148 31.3188 1.30082 31.1081C1.10015 30.8975 0.940973 30.6474 0.832373 30.3722C0.723774 30.097 0.667878 29.802 0.667878 29.5041C0.667878 29.2062 0.723774 28.9112 0.832373 28.636C0.940973 28.3607 1.10015 28.1107 1.30082 27.9L12.7266 15.9103L1.30082 3.92062C1.09983 3.71016 0.940361 3.46014 0.831556 3.18489C0.722752 2.90964 0.666748 2.61456 0.666748 2.31655C0.666748 2.01854 0.722752 1.72346 0.831556 1.44821C0.940361 1.17296 1.09983 0.922944 1.30082 0.712487Z" fill="white"/>
</svg>
