<svg width="28" height="28" viewBox="0 0 28 28" fill="none" xmlns="http://www.w3.org/2000/svg">
<path d="M19.7062 4.16931L21.9294 1.94615C22.894 0.98149 24.458 0.98149 25.4227 1.94615C26.3874 2.91082 26.3874 4.47485 25.4227 5.43951L11.4334 19.4288C10.7369 20.1253 9.87788 20.6373 8.93388 20.9185L5.39674 21.9721L6.45039 18.435C6.73159 17.491 7.24357 16.6319 7.94006 15.9355L19.7062 4.16931ZM19.7062 4.16931L23.182 7.6451M21.2059 16.7024V22.9602C21.2059 24.5973 19.8787 25.9244 18.2416 25.9244H4.40867C2.77158 25.9244 1.44446 24.5973 1.44446 22.9602V9.1272C1.44446 7.49012 2.77158 6.16299 4.40867 6.16299H10.6664" stroke="#040F0F" stroke-width="2.37137" stroke-linecap="round" stroke-linejoin="round"/>
</svg>
